<svg width="495" height="106" viewBox="0 0 495 106" fill="none" xmlns="http://www.w3.org/2000/svg">
<path d="M163.52 84.8559C170.216 84.8559 176.552 81.5439 180.44 75.9279L171.512 69.8079C169.712 72.4719 166.688 74.0559 163.52 74.0559C158.12 74.0559 153.8 69.6639 153.8 64.3359C153.8 58.9359 158.12 54.6159 163.52 54.6159C166.616 54.6159 169.64 56.1279 171.44 58.7199L180.296 52.5279C178.424 49.8639 175.904 47.7039 173.096 46.1919C170.144 44.6079 166.832 43.8159 163.52 43.8159C160.712 43.8159 158.048 44.3199 155.528 45.3999C153.08 46.4799 150.848 47.9199 148.976 49.7919C147.104 51.7359 145.592 53.8959 144.584 56.3439C143.504 58.8639 143 61.5999 143 64.3359C143 67.0719 143.504 69.8079 144.584 72.3279C145.592 74.7759 147.104 76.9359 148.976 78.8799C150.848 80.7519 153.08 82.1919 155.528 83.2719C158.048 84.2799 160.712 84.8559 163.52 84.8559Z" fill="#0F0D70"/>
<path d="M210.066 43.7441L210.138 46.0481C207.258 44.6081 204.09 43.8161 200.85 43.8161C198.114 43.8161 195.378 44.3201 192.858 45.4001C190.41 46.4801 188.25 47.9201 186.306 49.7921C184.434 51.6641 182.994 53.8961 181.914 56.3441C180.906 58.8641 180.33 61.6001 180.33 64.3361C180.33 67.0721 180.906 69.8081 181.914 72.3281C182.994 74.7761 184.434 76.9361 186.306 78.8801C188.25 80.7521 190.41 82.1921 192.858 83.2721C195.378 84.2801 198.114 84.8561 200.85 84.8561C204.09 84.8561 207.258 84.0641 210.138 82.6241L210.066 84.2801H220.866V43.7441H210.066ZM205.746 72.6881C204.306 73.5521 202.578 74.0561 200.85 74.0561C195.522 74.0561 191.13 69.6641 191.13 64.3361C191.13 59.0081 195.522 54.6161 200.85 54.6161C202.722 54.6161 204.594 55.1201 206.106 56.2001C207.69 57.1361 208.914 58.5761 209.634 60.2321C210.282 61.5281 210.57 62.8961 210.57 64.3361C210.57 66.0641 210.138 67.7201 209.274 69.2321C208.41 70.6721 207.258 71.8961 205.746 72.6881Z" fill="#0F0D70"/>
<path d="M226.592 84.28H237.464V26.248L226.592 29.848V84.28Z" fill="#0F0D70"/>
<path d="M260.802 84.568C263.61 84.568 266.346 83.992 268.938 82.84C271.458 81.76 273.69 80.176 275.562 78.232L267.93 71.032C266.058 73.048 263.538 74.128 260.802 74.128C257.274 74.128 254.178 72.256 252.45 69.52H281.034V64.264C281.034 58.864 278.946 53.752 275.13 49.936C271.314 46.12 266.202 43.96 260.802 43.96C255.33 43.96 250.29 46.12 246.402 49.936C242.586 53.752 240.498 58.864 240.498 64.264C240.498 69.664 242.586 74.776 246.402 78.592C250.29 82.408 255.33 84.568 260.802 84.568ZM252.45 59.08C254.178 56.272 257.274 54.4 260.802 54.4C264.258 54.4 267.354 56.272 269.154 59.08H252.45Z" fill="#AFEC00"/>
<path d="M314.495 50.1521C311.039 46.7681 306.503 44.8961 301.679 44.8961C299.087 44.8961 296.639 45.4001 294.407 46.4081V43.7441H283.607V61.3841C283.535 61.9601 283.535 62.4641 283.535 63.0401H283.607V84.2801H294.407V61.9601C294.911 58.4321 297.935 55.6961 301.679 55.6961C305.711 55.6961 309.023 59.0081 309.023 63.0401V84.2801H319.823V63.0401C319.823 58.1441 317.879 53.6081 314.495 50.1521Z" fill="#0F0D70"/>
<path d="M324.299 72.2561C325.379 74.7041 326.819 76.9361 328.691 78.8081C330.635 80.6801 332.795 82.1921 335.243 83.2001C337.763 84.2801 340.499 84.7841 343.235 84.7841C345.971 84.7841 348.707 84.2801 351.227 83.2001C353.675 82.1921 355.835 80.6801 357.779 78.8081C359.651 76.9361 361.091 74.7041 362.171 72.2561C363.251 69.7361 363.755 67.0721 363.755 64.2641V29.3441L352.955 25.7441V46.1921C352.379 45.9041 351.803 45.6161 351.227 45.4001C348.707 44.3201 346.043 43.8161 343.235 43.8161C340.499 43.8161 337.763 44.3201 335.243 45.4001C332.795 46.4081 330.635 47.9201 328.691 49.7921C326.819 51.6641 325.379 53.8961 324.299 56.3441C323.291 58.8641 322.715 61.5281 322.715 64.2641C322.715 67.0721 323.291 69.7361 324.299 72.2561ZM343.235 54.5441C348.563 54.5441 352.955 58.9361 352.955 64.2641C352.955 69.6641 348.563 73.9841 343.235 73.9841C337.907 73.9841 333.515 69.6641 333.515 64.2641C333.515 58.9361 337.907 54.5441 343.235 54.5441Z" fill="#0F0D70"/>
<path d="M380.696 44.32V44.248C380.696 37.984 385.808 32.8 392.144 32.8V22C389.12 22 386.168 22.648 383.432 23.8C380.768 24.88 378.392 26.464 376.376 28.552C374.36 30.568 372.705 32.944 371.625 35.608C370.473 38.344 369.896 41.296 369.896 44.248V84.28H380.696V54.4H392.144V44.32H380.696Z" fill="#0F0D70"/>
<path d="M403.882 84.28V66.568C403.882 59.656 409.498 53.968 416.482 53.968V43.168C413.314 43.168 410.218 43.816 407.338 45.04C404.602 46.192 402.082 47.92 399.922 50.08C397.762 52.168 396.106 54.688 394.882 57.496C393.658 60.376 393.082 63.4 393.082 66.568V84.28H403.882Z" fill="#0F0D70"/>
<path d="M434.474 84.568C437.282 84.568 440.018 83.992 442.61 82.84C445.13 81.76 447.362 80.176 449.234 78.232L441.602 71.032C439.73 73.048 437.21 74.128 434.474 74.128C430.946 74.128 427.85 72.256 426.122 69.52H454.706V64.264C454.706 58.864 452.618 53.752 448.802 49.936C444.986 46.12 439.874 43.96 434.474 43.96C429.002 43.96 423.962 46.12 420.074 49.936C416.258 53.752 414.17 58.864 414.17 64.264C414.17 69.664 416.258 74.776 420.074 78.592C423.962 82.408 429.002 84.568 434.474 84.568ZM426.122 59.08C427.85 56.272 430.946 54.4 434.474 54.4C437.93 54.4 441.026 56.272 442.826 59.08H426.122Z" fill="#6A9BFB"/>
<path d="M474.271 84.568C477.079 84.568 479.815 83.992 482.407 82.84C484.927 81.76 487.159 80.176 489.031 78.232L481.399 71.032C479.527 73.048 477.007 74.128 474.271 74.128C470.743 74.128 467.647 72.256 465.919 69.52H494.503V64.264C494.503 58.864 492.415 53.752 488.599 49.936C484.783 46.12 479.671 43.96 474.271 43.96C468.799 43.96 463.759 46.12 459.871 49.936C456.055 53.752 453.967 58.864 453.967 64.264C453.967 69.664 456.055 74.776 459.871 78.592C463.759 82.408 468.799 84.568 474.271 84.568ZM465.919 59.08C467.647 56.272 470.743 54.4 474.271 54.4C477.727 54.4 480.823 56.272 482.623 59.08H465.919Z" fill="#6A9BFB"/>
<rect x="38" y="76" width="30" height="30" fill="#6A9BFB"/>
<rect x="76" y="76" width="30" height="30" fill="#D9D9D9"/>
<rect y="76" width="30" height="30" fill="#D9D9D9"/>
<rect y="38" width="30" height="30" fill="#D9D9D9" fill-opacity="0.37"/>
<rect x="76" y="38" width="30" height="30" fill="#D9D9D9" fill-opacity="0.37"/>
<rect x="38" y="38" width="30" height="30" fill="#D9D9D9" fill-opacity="0.37"/>
<rect x="38" width="30" height="30" fill="#D9D9D9" fill-opacity="0.3"/>
<rect x="76" width="30" height="30" fill="#AFEC00"/>
</svg>
